<svg width="19" height="18" viewBox="0 0 19 18" fill="none" xmlns="http://www.w3.org/2000/svg">
<path d="M5.82782 5.96675C6.02593 8.0177 7.35245 9.37223 9.23345 9.37223C11.1144 9.37223 12.4407 8.01766 12.6389 5.96675L12.9198 3.75089C13.094 1.57388 11.3175 0 9.23345 0C7.14935 0 5.37287 1.57388 5.54696 3.75089L5.82782 5.96675Z" fill="#C92A2A"/>
<path d="M16.5178 14.8562L16.3834 14.0001C16.2708 13.2823 15.8197 12.6627 15.1714 12.3351L12.3423 10.9045C12.2537 10.8597 12.1816 10.7922 12.1212 10.7168C11.3021 11.5828 10.3071 12.0921 9.23308 12.0921C8.15909 12.0921 7.16392 11.5828 6.34492 10.7168C6.28449 10.7922 6.21238 10.8597 6.12383 10.9045L3.29473 12.3351C2.64638 12.6627 2.19533 13.2823 2.08272 14.0001L1.94821 14.8562C1.90029 15.1617 1.96354 15.6102 2.23727 15.8344C2.60324 16.1337 3.95518 18.0002 9.23308 18.0002C14.5109 18.0002 15.8628 16.1337 16.2288 15.8344C16.5026 15.6102 16.5658 15.1617 16.5178 14.8562Z" fill="#C92A2A"/>
</svg>
