<svg width="19" height="18" viewBox="0 0 19 18" fill="none" xmlns="http://www.w3.org/2000/svg">
<path d="M7.26953 16.75C7.68374 16.75 8.01953 16.4142 8.01953 16C8.01953 15.5858 7.68374 15.25 7.26953 15.25C6.85532 15.25 6.51953 15.5858 6.51953 16C6.51953 16.4142 6.85532 16.75 7.26953 16.75Z" stroke="white" stroke-width="2" stroke-linecap="round" stroke-linejoin="round"/>
<path d="M15.5195 16.75C15.9337 16.75 16.2695 16.4142 16.2695 16C16.2695 15.5858 15.9337 15.25 15.5195 15.25C15.1053 15.25 14.7695 15.5858 14.7695 16C14.7695 16.4142 15.1053 16.75 15.5195 16.75Z" stroke="white" stroke-width="2" stroke-linecap="round" stroke-linejoin="round"/>
<path d="M1.26953 1H4.26953L6.27953 11.0425C6.34811 11.3878 6.53596 11.698 6.81019 11.9187C7.08442 12.1395 7.42755 12.2567 7.77953 12.25H15.0695C15.4215 12.2567 15.7646 12.1395 16.0389 11.9187C16.3131 11.698 16.5009 11.3878 16.5695 11.0425L17.7695 4.75H5.01953" stroke="white" stroke-width="2" stroke-linecap="round" stroke-linejoin="round"/>
</svg>
